<svg fill="none" height="12" viewBox="0 0 12 12" width="12" xmlns="http://www.w3.org/2000/svg"><path d="m6 0c-3.30829 0-6 2.69171-6 6s2.69171 6 6 6 6-2.69171 6-6-2.69171-6-6-6zm0 .923077c2.80889 0 5.0769 2.268033 5.0769 5.076923s-2.26801 5.0769-5.0769 5.0769-5.076923-2.26801-5.076923-5.0769 2.268033-5.076923 5.076923-5.076923zm-.04327 2.307693c-1.53425 0-2.76923 1.23497-2.76923 2.76923s1.23498 2.76923 2.76923 2.76923c1.10697 0 2.05349-.66346 2.49519-1.60096l-.83654-.38942c-.29747.63281-.91947 1.0673-1.65865 1.0673-1.05108 0-1.84615-.79507-1.84615-1.84615s.79507-1.84615 1.84615-1.84615c.73918 0 1.36118.43449 1.65865 1.0673l.83654-.38942c-.4417-.9375-1.38822-1.60096-2.49519-1.60096z" fill="#000"/></svg>